<svg xmlns="http://www.w3.org/2000/svg" viewBox="0 0 800 500" width="100%" height="100%">
  <defs>
    <!-- Background Gradient -->
    <linearGradient id="bg-grad" x1="0%" y1="0%" x2="100%" y2="100%">
      <stop offset="0%" stop-color="#0b0e14" />
      <stop offset="100%" stop-color="#0f172a" />
    </linearGradient>

    <!-- Glowing Filters -->
    <filter id="glow-zoho" x="-20%" y="-20%" width="140%" height="140%">
      <feGaussianBlur stdDeviation="8" result="blur" />
      <feMerge>
        <feMergeNode in="blur" />
        <feMergeNode in="SourceGraphic" />
      </feMerge>
    </filter>

    <filter id="glow-fb" x="-20%" y="-20%" width="140%" height="140%">
      <feGaussianBlur stdDeviation="6" result="blur" />
      <feMerge>
        <feMergeNode in="blur" />
        <feMergeNode in="SourceGraphic" />
      </feMerge>
    </filter>

    <!-- Facebook Blue Gradient -->
    <linearGradient id="fb-grad" x1="0%" y1="0%" x2="100%" y2="100%">
      <stop offset="0%" stop-color="#1877f2" />
      <stop offset="100%" stop-color="#0d4fb5" />
    </linearGradient>

    <!-- Zoho Colorful Palette Ggradient -->
    <!-- Zoho colors: Red (#e21c27), Blue (#1b75bb), Yellow/Orange (#f58220), Green (#39b54a) -->
    <linearGradient id="zoho-grad-red" x1="0%" y1="0%" x2="100%" y2="100%">
      <stop offset="0%" stop-color="#ff4757" />
      <stop offset="100%" stop-color="#e21c27" />
    </linearGradient>
    <linearGradient id="zoho-grad-blue" x1="0%" y1="0%" x2="100%" y2="100%">
      <stop offset="0%" stop-color="#00a8e8" />
      <stop offset="100%" stop-color="#1b75bb" />
    </linearGradient>
    <linearGradient id="zoho-grad-orange" x1="0%" y1="0%" x2="100%" y2="100%">
      <stop offset="0%" stop-color="#ff9f43" />
      <stop offset="100%" stop-color="#f58220" />
    </linearGradient>

    <!-- Transference Beam -->
    <linearGradient id="beam-grad" x1="0%" y1="0%" x2="100%" y2="0%">
      <stop offset="0%" stop-color="#1877f2" stop-opacity="0.2"/>
      <stop offset="50%" stop-color="#ff9f43" stop-opacity="0.8"/>
      <stop offset="100%" stop-color="#ff4757" stop-opacity="0.2"/>
    </linearGradient>
  </defs>

  <!-- Background -->
  <rect width="800" height="500" rx="16" fill="url(#bg-grad)" />

  <!-- Title -->
  <text x="400" y="50" font-family="'Inter', sans-serif" font-size="18" font-weight="600" fill="#94a3b8" text-anchor="middle" letter-spacing="1">WORKPLACE COLLABORATION MIGRATION</text>

  <!-- Left: Meta Workplace Hub -->
  <g transform="translate(160, 250)">
    <!-- Glow -->
    <circle cx="0" cy="0" r="75" fill="#1877f2" opacity="0.1" filter="url(#glow-fb)"/>
    
    <!-- Central Workplace Bubble -->
    <circle cx="0" cy="0" r="45" fill="url(#fb-grad)" stroke="#ffffff" stroke-width="1.5" filter="url(#glow-fb)" />
    
    <!-- "W" Social Symbol representation -->
    <path d="M-18,-12 L-8,12 L-1,12 L5,-2 L11,12 L18,12 L28,-12 L20,-12 L14,4 L9,-12 L1,-12 L-4,4 L-10,-12 Z" fill="#ffffff" />
    
    <!-- Connected Satellites (Posts and Accounts) -->
    <g opacity="0.7">
      <line x1="0" y1="0" x2="-80" y2="40" stroke="#1877f2" stroke-width="2"/>
      <line x1="0" y1="0" x2="-50" y2="-70" stroke="#1877f2" stroke-width="2"/>
      <line x1="0" y1="0" x2="40" y2="80" stroke="#1877f2" stroke-width="2"/>

      <!-- Post Icon 1 -->
      <circle cx="-80" cy="40" r="14" fill="#1e293b" stroke="#1877f2" stroke-width="2"/>
      <rect x="-86" y="36" width="12" height="8" rx="1" fill="none" stroke="#94a3b8" stroke-width="1.5"/>

      <!-- Account Icon 2 -->
      <circle cx="-50" cy="-70" r="14" fill="#1e293b" stroke="#1877f2" stroke-width="2"/>
      <circle cx="-50" cy="-73" r="4" fill="#94a3b8"/>
      <path d="M-57,-63 C-57,-67 -43,-67 -43,-63 Z" fill="#94a3b8"/>

      <!-- Feed Node 3 -->
      <circle cx="40" cy="80" r="12" fill="#1e293b" stroke="#1877f2" stroke-width="2"/>
      <circle cx="40" cy="80" r="3" fill="#1877f2" filter="url(#glow-fb)"/>
    </g>

    <text x="0" y="105" font-family="'Inter', sans-serif" font-size="15" font-weight="700" fill="#f8fafc" text-anchor="middle">META WORKPLACE</text>
    <text x="0" y="123" font-family="'Inter', sans-serif" font-size="11" font-weight="500" fill="#1877f2" text-anchor="middle" letter-spacing="0.5">SOURCE PLATFORM</text>
  </g>

  <!-- Right: Zoho Workplace Hub -->
  <g transform="translate(640, 250)">
    <!-- Glow -->
    <circle cx="0" cy="0" r="85" fill="#e21c27" opacity="0.1" filter="url(#glow-zoho)"/>
    
    <!-- Zoho Mail & Connect stylized cards -->
    <!-- Red circle (Mail) -->
    <g transform="translate(-25, -25)">
      <circle cx="0" cy="0" r="30" fill="url(#zoho-grad-red)" stroke="#ffffff" stroke-width="1.5" filter="url(#glow-zoho)" />
      <!-- Mail icon -->
      <rect x="-14" y="-10" width="28" height="20" rx="3" fill="none" stroke="#ffffff" stroke-width="2"/>
      <path d="M-14,-8 L0,2 L14,-8" fill="none" stroke="#ffffff" stroke-width="2"/>
    </g>

    <!-- Blue circle (Zoho Connect) -->
    <g transform="translate(25, -15)">
      <circle cx="0" cy="0" r="28" fill="url(#zoho-grad-blue)" stroke="#ffffff" stroke-width="1.5" filter="url(#glow-zoho)" />
      <!-- Connect network nodes -->
      <circle cx="-6" cy="4" r="3.5" fill="#ffffff"/>
      <circle cx="8" cy="-6" r="3.5" fill="#ffffff"/>
      <circle cx="2" cy="10" r="3.5" fill="#ffffff"/>
      <line x1="-3" y1="2" x2="5" y2="-4" stroke="#ffffff" stroke-width="1.5"/>
      <line x1="0" y1="8" x2="6" y2="-3" stroke="#ffffff" stroke-width="1.5"/>
    </g>

    <!-- Orange circle (Zoho Writer/Docs) -->
    <g transform="translate(0, 30)">
      <circle cx="0" cy="0" r="26" fill="url(#zoho-grad-orange)" stroke="#ffffff" stroke-width="1.5" filter="url(#glow-zoho)" />
      <!-- Docs sheet symbol -->
      <rect x="-10" y="-12" width="20" height="24" rx="2" fill="none" stroke="#ffffff" stroke-width="2"/>
      <line x1="-6" y1="-5" x2="6" y2="-5" stroke="#ffffff" stroke-width="2"/>
      <line x1="-6" y1="1" x2="6" y2="1" stroke="#ffffff" stroke-width="2"/>
      <line x1="-6" y1="7" x2="2" y2="7" stroke="#ffffff" stroke-width="2"/>
    </g>

    <!-- Connected Zoho nodes -->
    <g opacity="0.8">
      <line x1="0" y1="0" x2="70" y2="-60" stroke="#e21c27" stroke-width="2"/>
      <line x1="0" y1="0" x2="75" y2="40" stroke="#f58220" stroke-width="2"/>

      <!-- Zoho Mail Inbox node -->
      <circle cx="70" cy="-60" r="14" fill="#1e293b" stroke="#e21c27" stroke-width="2"/>
      <text x="70" y="-56" font-family="'Inter', sans-serif" font-size="10" font-weight="700" fill="#ff4757" text-anchor="middle">@</text>

      <!-- Zoho Chat node -->
      <circle cx="75" cy="40" r="14" fill="#1e293b" stroke="#f58220" stroke-width="2"/>
      <!-- Message bubble symbol -->
      <path d="M70,36 H80 V42 H73 L70,45 Z" fill="none" stroke="#ff9f43" stroke-width="1.5"/>
    </g>

    <text x="0" y="105" font-family="'Inter', sans-serif" font-size="15" font-weight="700" fill="#f8fafc" text-anchor="middle">ZOHO WORKPLACE</text>
    <text x="0" y="123" font-family="'Inter', sans-serif" font-size="11" font-weight="500" fill="#ff9f43" text-anchor="middle" letter-spacing="0.5">TARGET WORKPLACE</text>
  </g>

  <!-- Migration Pipe -->
  <g>
    <path d="M 230,250 C 350,160 450,160 570,250" fill="none" stroke="url(#beam-grad)" stroke-width="6" filter="url(#glow-zoho)"/>
    <path d="M 230,250 C 350,160 450,160 570,250" fill="none" stroke="#ffffff" stroke-width="1.5" stroke-dasharray="8 12" />

    <!-- Transfer objects -->
    <!-- Profile Sync -->
    <g transform="translate(300, 205)">
      <circle cx="0" cy="0" r="12" fill="#1e293b" stroke="#1877f2" stroke-width="1.5"/>
      <circle cx="0" cy="-2" r="3" fill="#94a3b8"/>
      <path d="M-6,6 C-6,3 6,3 6,6 Z" fill="#94a3b8"/>
    </g>

    <!-- Zoho Connect Mailbox sync icon in center -->
    <g transform="translate(400, 192)">
      <circle cx="0" cy="0" r="22" fill="#1e293b" stroke="#ff9f43" stroke-width="2" filter="url(#glow-zoho)"/>
      <rect x="-10" y="-8" width="20" height="16" rx="2" fill="none" stroke="#ff9f43" stroke-width="1.5"/>
      <path d="M-10,-6 L0,1 L10,-6" fill="none" stroke="#ff9f43" stroke-width="1.5"/>
      
      <rect x="-35" y="30" width="70" height="18" rx="3" fill="#0f172a" stroke="#475569" stroke-width="1"/>
      <text x="0" y="42" font-family="'Inter', sans-serif" font-size="8" font-weight="700" fill="#ff9f43" text-anchor="middle">MAIL &amp; POSTS</text>
    </g>

    <!-- File sync icon -->
    <g transform="translate(500, 205)">
      <rect x="-12" y="-14" width="24" height="28" rx="3" fill="#1e293b" stroke="#e21c27" stroke-width="1.5"/>
      <circle cx="4" cy="-6" r="3" fill="#e21c27" filter="url(#glow-zoho)"/>
    </g>
  </g>
</svg>
